name rise31.4854peak64.571fall78.6902.mot
datacolumns 19
datarows 27
range 19.29659100000000 19.33992700000000
endheader
time	ground_force1_vx	ground_force1_vy	ground_force1_vz	ground_force1_px	ground_force1_py	ground_force1_pz	ground_force2_vx	ground_force2_vy	ground_force2_vz	ground_force2_px	ground_force2_py	ground_force2_pz	ground_torque1_x	ground_torque1_y	ground_torque1_z	ground_torque2_x	ground_torque2_y	ground_torque2_z	
19.29659100000000	13.37075500000000	681.99412099999995	43.74047600000000	0.23022100000000	0.00000000000000	0.10618100000000	0.00000000000000	0.00000000000000	0.00000000000000	0.00000000000000	0.00000000000000	0.00000000000000	0.00000000000000	17.47090800000000	0.00000000000000	0.00000000000000	0.00000000000000	0.00000000000000	
19.29826400000000	12.95362300000000	682.75178400000004	43.73890000000000	0.22931100000000	0.00000000000000	0.10618000000000	0.00000000000000	0.00000000000000	0.00000000000000	0.00000000000000	0.00000000000000	0.00000000000000	0.00000000000000	17.48828400000000	0.00000000000000	0.00000000000000	0.00000000000000	0.00000000000000	
19.29993200000000	12.52824600000000	683.55502899999999	43.73812200000000	0.22837600000000	0.00000000000000	0.10618100000000	0.00000000000000	0.00000000000000	0.00000000000000	0.00000000000000	0.00000000000000	0.00000000000000	0.00000000000000	17.50761100000000	0.00000000000000	0.00000000000000	0.00000000000000	0.00000000000000	
19.30159500000000	12.09452000000000	684.40165999999999	43.73784900000000	0.22741600000000	0.00000000000000	0.10618200000000	0.00000000000000	0.00000000000000	0.00000000000000	0.00000000000000	0.00000000000000	0.00000000000000	0.00000000000000	17.52880200000000	0.00000000000000	0.00000000000000	0.00000000000000	0.00000000000000	
19.30326300000000	11.65236400000000	685.28950599999996	43.73781000000000	0.22643400000000	0.00000000000000	0.10618500000000	0.00000000000000	0.00000000000000	0.00000000000000	0.00000000000000	0.00000000000000	0.00000000000000	0.00000000000000	17.55178000000000	0.00000000000000	0.00000000000000	0.00000000000000	0.00000000000000	
19.30492500000000	11.20172000000000	686.21642599999996	43.73775300000000	0.22542700000000	0.00000000000000	0.10618800000000	0.00000000000000	0.00000000000000	0.00000000000000	0.00000000000000	0.00000000000000	0.00000000000000	0.00000000000000	17.57648000000000	0.00000000000000	0.00000000000000	0.00000000000000	0.00000000000000	
19.30659400000000	10.74255500000000	687.18032400000004	43.73745200000000	0.22439900000000	0.00000000000000	0.10619200000000	0.00000000000000	0.00000000000000	0.00000000000000	0.00000000000000	0.00000000000000	0.00000000000000	0.00000000000000	17.60285000000000	0.00000000000000	0.00000000000000	0.00000000000000	0.00000000000000	
19.30826500000000	10.27485600000000	688.17915000000005	43.73670000000000	0.22334900000000	0.00000000000000	0.10619700000000	0.00000000000000	0.00000000000000	0.00000000000000	0.00000000000000	0.00000000000000	0.00000000000000	0.00000000000000	17.63084800000000	0.00000000000000	0.00000000000000	0.00000000000000	0.00000000000000	
19.30994000000000	9.79863300000000	689.21091600000000	43.73531500000000	0.22228000000000	0.00000000000000	0.10620300000000	0.00000000000000	0.00000000000000	0.00000000000000	0.00000000000000	0.00000000000000	0.00000000000000	0.00000000000000	17.66044500000000	0.00000000000000	0.00000000000000	0.00000000000000	0.00000000000000	
19.31159700000000	9.31391500000000	690.27369599999997	43.73314000000000	0.22119100000000	0.00000000000000	0.10620900000000	0.00000000000000	0.00000000000000	0.00000000000000	0.00000000000000	0.00000000000000	0.00000000000000	0.00000000000000	17.69162000000000	0.00000000000000	0.00000000000000	0.00000000000000	0.00000000000000	
19.31325900000000	8.82075200000000	691.36563999999998	43.73003800000000	0.22008400000000	0.00000000000000	0.10621600000000	0.00000000000000	0.00000000000000	0.00000000000000	0.00000000000000	0.00000000000000	0.00000000000000	0.00000000000000	17.72436400000000	0.00000000000000	0.00000000000000	0.00000000000000	0.00000000000000	
19.31492600000000	8.31921000000000	692.48497399999997	43.72590000000000	0.21896100000000	0.00000000000000	0.10622300000000	0.00000000000000	0.00000000000000	0.00000000000000	0.00000000000000	0.00000000000000	0.00000000000000	0.00000000000000	17.75867500000000	0.00000000000000	0.00000000000000	0.00000000000000	0.00000000000000	
19.31659700000000	7.80937200000000	693.63001399999996	43.72063700000000	0.21782300000000	0.00000000000000	0.10623100000000	0.00000000000000	0.00000000000000	0.00000000000000	0.00000000000000	0.00000000000000	0.00000000000000	0.00000000000000	17.79456100000000	0.00000000000000	0.00000000000000	0.00000000000000	0.00000000000000	
19.31825900000000	7.29133700000000	694.79916600000001	43.71418800000000	0.21667100000000	0.00000000000000	0.10624000000000	0.00000000000000	0.00000000000000	0.00000000000000	0.00000000000000	0.00000000000000	0.00000000000000	0.00000000000000	17.83203600000000	0.00000000000000	0.00000000000000	0.00000000000000	0.00000000000000	
19.31993000000000	6.76522000000000	695.99093100000005	43.70651500000000	0.21550800000000	0.00000000000000	0.10624800000000	0.00000000000000	0.00000000000000	0.00000000000000	0.00000000000000	0.00000000000000	0.00000000000000	0.00000000000000	17.87112400000000	0.00000000000000	0.00000000000000	0.00000000000000	0.00000000000000	
19.32159200000000	6.23114700000000	697.20391600000005	43.69760300000000	0.21433400000000	0.00000000000000	0.10625700000000	0.00000000000000	0.00000000000000	0.00000000000000	0.00000000000000	0.00000000000000	0.00000000000000	0.00000000000000	17.91185100000000	0.00000000000000	0.00000000000000	0.00000000000000	0.00000000000000	
19.32325900000000	5.68925800000000	698.43682999999999	43.68746300000000	0.21315100000000	0.00000000000000	0.10626600000000	0.00000000000000	0.00000000000000	0.00000000000000	0.00000000000000	0.00000000000000	0.00000000000000	0.00000000000000	17.95425100000000	0.00000000000000	0.00000000000000	0.00000000000000	0.00000000000000	
19.32493200000000	5.13970100000000	699.68849200000000	43.67612800000000	0.21196200000000	0.00000000000000	0.10627500000000	0.00000000000000	0.00000000000000	0.00000000000000	0.00000000000000	0.00000000000000	0.00000000000000	0.00000000000000	17.99836200000000	0.00000000000000	0.00000000000000	0.00000000000000	0.00000000000000	
19.32659600000000	4.58263800000000	700.95783200000005	43.66365700000000	0.21076700000000	0.00000000000000	0.10628500000000	0.00000000000000	0.00000000000000	0.00000000000000	0.00000000000000	0.00000000000000	0.00000000000000	0.00000000000000	18.04422300000000	0.00000000000000	0.00000000000000	0.00000000000000	0.00000000000000	
19.32826300000000	4.01823600000000	702.24389299999996	43.65013100000000	0.20956800000000	0.00000000000000	0.10629400000000	0.00000000000000	0.00000000000000	0.00000000000000	0.00000000000000	0.00000000000000	0.00000000000000	0.00000000000000	18.09187800000000	0.00000000000000	0.00000000000000	0.00000000000000	0.00000000000000	
19.32992600000000	3.44667300000000	703.54583400000001	43.63565400000000	0.20836700000000	0.00000000000000	0.10630300000000	0.00000000000000	0.00000000000000	0.00000000000000	0.00000000000000	0.00000000000000	0.00000000000000	0.00000000000000	18.14137200000000	0.00000000000000	0.00000000000000	0.00000000000000	0.00000000000000	
19.33159300000000	2.86813200000000	704.86292700000001	43.62035500000000	0.20716500000000	0.00000000000000	0.10631100000000	0.00000000000000	0.00000000000000	0.00000000000000	0.00000000000000	0.00000000000000	0.00000000000000	0.00000000000000	18.19275000000000	0.00000000000000	0.00000000000000	0.00000000000000	0.00000000000000	
19.33325800000000	2.28280200000000	706.19455900000003	43.60438100000000	0.20596500000000	0.00000000000000	0.10632000000000	0.00000000000000	0.00000000000000	0.00000000000000	0.00000000000000	0.00000000000000	0.00000000000000	0.00000000000000	18.24605700000000	0.00000000000000	0.00000000000000	0.00000000000000	0.00000000000000	
19.33493100000000	1.69087900000000	707.54023199999995	43.58790500000000	0.20476600000000	0.00000000000000	0.10632800000000	0.00000000000000	0.00000000000000	0.00000000000000	0.00000000000000	0.00000000000000	0.00000000000000	0.00000000000000	18.30133700000000	0.00000000000000	0.00000000000000	0.00000000000000	0.00000000000000	
19.33659300000000	1.09256100000000	708.89955699999996	43.57111900000000	0.20357100000000	0.00000000000000	0.10633600000000	0.00000000000000	0.00000000000000	0.00000000000000	0.00000000000000	0.00000000000000	0.00000000000000	0.00000000000000	18.35863300000000	0.00000000000000	0.00000000000000	0.00000000000000	0.00000000000000	
19.33827200000000	0.48805300000000	710.27225799999997	43.55423600000000	0.20238100000000	0.00000000000000	0.10634400000000	0.00000000000000	0.00000000000000	0.00000000000000	0.00000000000000	0.00000000000000	0.00000000000000	0.00000000000000	18.41798600000000	0.00000000000000	0.00000000000000	0.00000000000000	0.00000000000000	
19.33992700000000	-0.12243900000000	711.65816199999995	43.53748800000000	0.20119700000000	0.00000000000000	0.10635100000000	0.00000000000000	0.00000000000000	0.00000000000000	0.00000000000000	0.00000000000000	0.00000000000000	0.00000000000000	18.47943100000000	0.00000000000000	0.00000000000000	0.00000000000000	0.00000000000000	
